<svg aria-hidden="true" style="width:0;height:0;position:absolute;overflow:hidden" xmlns="http://www.w3.org/2000/svg"><defs><symbol id="icon-logo" viewBox="0 0 32 32"><path fill="#431f5a" style="fill:var(--color1,#431f5a)" d="M15.999 0v9.144l-8 4.571-8-4.572 16-9.143z"/><path fill="#722ed1" style="fill:var(--color2,#722ed1)" d="m8 13.715 8 4.571v9.143L0 18.286V9.143l8 4.572z"/><path fill="#722ed1" style="fill:var(--color2,#722ed1)" d="M23.999 22.857v9.142l-8-4.571v-9.143l8 4.571zM15.999 0v9.143l16 9.141V9.143L15.999 0z"/><path fill="#431f5a" style="fill:var(--color1,#431f5a)" d="M31.998 9.143v9.144l-8 4.571-8-4.572 16-9.143z"/><path fill="#431f5a" style="fill:var(--color1,#431f5a)" d="m23.999 22.857-8 4.571v-9.143l8 4.571z"/></symbol><symbol id="icon-send" viewBox="0 0 32 32"><path d="M31.283 14.622 1.985 3.109a.655.655 0 0 0-.695.166c-.088.091-.148.206-.172.33s-.013.253.033.371l2.402 8.638a1.256 1.256 0 0 0 1.117.917l20.266 1.5c.134.011.422.067.419.204s-.278.2-.412.211l-20.022 1.19a1.256 1.256 0 0 0-1.151.972l-2.179 9.394a.67.67 0 0 0 .167.684.668.668 0 0 0 .689.15l28.846-11.968a.656.656 0 0 0 .432-.625.66.66 0 0 0-.442-.618z"/></symbol><symbol id="icon-instagram" viewBox="0 0 32 32"><path d="M10.668 16a5.339 5.339 0 0 1 3.293-4.929 5.33 5.33 0 0 1 5.813 1.157 5.34 5.34 0 0 1-.81 8.207 5.335 5.335 0 0 1-8.296-4.436zm-2.884 0a8.218 8.218 0 0 0 9.819 8.059A8.217 8.217 0 1 0 7.784 16zM22.62 7.458a1.921 1.921 0 1 0 3.84-.001 1.921 1.921 0 0 0-3.839.001zM9.536 29.024a8.822 8.822 0 0 1-2.972-.55 4.976 4.976 0 0 1-1.84-1.2 4.935 4.935 0 0 1-1.2-1.84 8.822 8.822 0 0 1-.55-2.972c-.078-1.686-.094-2.2-.094-6.466s.016-4.778.094-6.466a8.921 8.921 0 0 1 .55-2.972 4.976 4.976 0 0 1 1.2-1.84 4.935 4.935 0 0 1 1.84-1.2 8.822 8.822 0 0 1 2.972-.55c1.686-.078 2.2-.094 6.464-.094s4.778.016 6.466.094a8.921 8.921 0 0 1 2.972.55 4.951 4.951 0 0 1 1.84 1.2 4.951 4.951 0 0 1 1.2 1.84c.353.952.539 1.957.55 2.972.078 1.688.094 2.2.094 6.466s-.016 4.778-.094 6.466a8.871 8.871 0 0 1-.55 2.972 5.286 5.286 0 0 1-3.038 3.036 8.822 8.822 0 0 1-2.972.55c-1.686.078-2.2.094-6.466.094s-4.778-.016-6.464-.094l-.002.004zM9.4.096A11.724 11.724 0 0 0 5.52.84a7.842 7.842 0 0 0-2.834 1.846A7.816 7.816 0 0 0 .84 5.52 11.75 11.75 0 0 0 .096 9.4C.018 11.11 0 11.654 0 16s.018 4.89.096 6.6a11.75 11.75 0 0 0 .744 3.88 7.816 7.816 0 0 0 1.846 2.834A7.872 7.872 0 0 0 5.52 31.16c1.243.466 2.557.717 3.884.744C11.11 31.98 11.654 32 16 32s4.89-.018 6.6-.096a11.722 11.722 0 0 0 3.884-.744 8.194 8.194 0 0 0 4.68-4.68c.467-1.243.718-2.556.744-3.884C31.98 20.89 32 20.346 32 16s-.018-4.89-.096-6.6a11.724 11.724 0 0 0-.744-3.88 7.885 7.885 0 0 0-1.846-2.834A7.834 7.834 0 0 0 26.482.84 11.71 11.71 0 0 0 22.6.096C20.892.02 20.346 0 16 0s-4.89.018-6.6.096z"/><path d="M10.668 16a5.339 5.339 0 0 1 3.293-4.929 5.33 5.33 0 0 1 5.813 1.157 5.34 5.34 0 0 1-.81 8.207 5.335 5.335 0 0 1-8.296-4.436zm-2.884 0a8.218 8.218 0 0 0 9.819 8.059A8.217 8.217 0 1 0 7.784 16zM22.62 7.458a1.921 1.921 0 1 0 3.84-.001 1.921 1.921 0 0 0-3.839.001zM9.536 29.024a8.822 8.822 0 0 1-2.972-.55 4.976 4.976 0 0 1-1.84-1.2 4.935 4.935 0 0 1-1.2-1.84 8.822 8.822 0 0 1-.55-2.972c-.078-1.686-.094-2.2-.094-6.466s.016-4.778.094-6.466a8.921 8.921 0 0 1 .55-2.972 4.976 4.976 0 0 1 1.2-1.84 4.935 4.935 0 0 1 1.84-1.2 8.822 8.822 0 0 1 2.972-.55c1.686-.078 2.2-.094 6.464-.094s4.778.016 6.466.094a8.921 8.921 0 0 1 2.972.55 4.951 4.951 0 0 1 1.84 1.2 4.951 4.951 0 0 1 1.2 1.84c.353.952.539 1.957.55 2.972.078 1.688.094 2.2.094 6.466s-.016 4.778-.094 6.466a8.871 8.871 0 0 1-.55 2.972 5.286 5.286 0 0 1-3.038 3.036 8.822 8.822 0 0 1-2.972.55c-1.686.078-2.2.094-6.466.094s-4.778-.016-6.464-.094l-.002.004zM9.4.096A11.724 11.724 0 0 0 5.52.84a7.842 7.842 0 0 0-2.834 1.846A7.816 7.816 0 0 0 .84 5.52 11.75 11.75 0 0 0 .096 9.4C.018 11.11 0 11.654 0 16s.018 4.89.096 6.6a11.75 11.75 0 0 0 .744 3.88 7.816 7.816 0 0 0 1.846 2.834A7.872 7.872 0 0 0 5.52 31.16c1.243.466 2.557.717 3.884.744C11.11 31.98 11.654 32 16 32s4.89-.018 6.6-.096a11.722 11.722 0 0 0 3.884-.744 8.194 8.194 0 0 0 4.68-4.68c.467-1.243.718-2.556.744-3.884C31.98 20.89 32 20.346 32 16s-.018-4.89-.096-6.6a11.724 11.724 0 0 0-.744-3.88 7.885 7.885 0 0 0-1.846-2.834A7.834 7.834 0 0 0 26.482.84 11.71 11.71 0 0 0 22.6.096C20.892.02 20.346 0 16 0s-4.89.018-6.6.096z"/></symbol><symbol id="icon-twitter" viewBox="0 0 32 32"><path fill="#2daae1" style="fill:var(--color3,#2daae1)" d="M15.998 32c8.837 0 16-7.163 16-16s-7.163-16-16-16-16 7.163-16 16 7.163 16 16 16z"/><path fill="#fff" style="fill:var(--color4,#fff)" d="M26.194 9.668a8.349 8.349 0 0 1-2.4.658 4.2 4.2 0 0 0 1.84-2.314 8.345 8.345 0 0 1-2.656 1.016 4.187 4.187 0 0 0-4.591-1.029 4.188 4.188 0 0 0-2.537 4.844 11.875 11.875 0 0 1-8.622-4.37 4.188 4.188 0 0 0 1.294 5.584 4.154 4.154 0 0 1-1.894-.522v.052a4.184 4.184 0 0 0 3.356 4.102 4.257 4.257 0 0 1-1.89.072c.267.831.788 1.558 1.489 2.078s1.547.809 2.419.826a8.423 8.423 0 0 1-6.2 1.732 11.9 11.9 0 0 0 12.129.42 11.889 11.889 0 0 0 6.185-10.442c0-.181-.004-.362-.012-.542a8.523 8.523 0 0 0 2.09-2.166z"/></symbol><symbol id="icon-facebook" viewBox="0 0 32 32"><path fill="#485a96" style="fill:var(--color5,#485a96)" d="M30.238 32a1.767 1.767 0 0 0 1.766-1.766V1.766A1.767 1.767 0 0 0 30.238 0H1.77A1.767 1.767 0 0 0 .004 1.766v28.468A1.767 1.767 0 0 0 1.77 32h28.468z"/><path fill="#fff" style="fill:var(--color4,#fff)" d="M22.084 32V19.614h4.16l.622-4.83h-4.782v-3.088c0-1.4.388-2.352 2.4-2.352h2.558v-4.32a34.344 34.344 0 0 0-3.726-.2 5.819 5.819 0 0 0-6.212 6.384v3.562h-4.17v4.844h4.17v12.4h4.988L22.084 32z"/></symbol><symbol id="icon-sky" viewBox="0 0 32 32"><path fill="#8989a2" style="fill:var(--color6,#8989a2)" d="M13.908 6.987a.4.4 0 0 0-.269-.404.4.4 0 0 0-.172-.017h-1.553a.954.954 0 0 0-1.055 1.061v13.306a.405.405 0 0 0 .123.316.39.39 0 0 0 .322.106h1.55a.946.946 0 0 0 .786-.275.959.959 0 0 0 .269-.788V6.986zm17.753 4.488c0-.25-.184-.373-.436-.373H29.34a.645.645 0 0 0-.685.439l-2.658 5.898-3.704-5.837a1.006 1.006 0 0 0-1.022-.499h-2.24a1.184 1.184 0 0 0-.989.42l-3.947 4.234 3.537 5.158a.77.77 0 0 0 .684.436h2.11c.316 0 .5-.127.5-.392a.698.698 0 0 0-.184-.416l-3.109-4.603 2.358-2.54 4.661 6.89-2.057 4.353a1.027 1.027 0 0 0-.126.376c0 .252.185.373.437.373h1.871a.64.64 0 0 0 .684-.437l6.077-13.103a.952.952 0 0 0 .123-.377zM4.038 14.649c-.62-.14-.815-.315-.815-.627 0-.243.193-.437.751-.437h4.522a.953.953 0 0 0 1.013-.631.94.94 0 0 0 .046-.424v-.985c.007-.058.002-.117-.017-.172s-.049-.106-.089-.149-.089-.075-.144-.096a.385.385 0 0 0-.171-.025H3.839c-2.36.002-3.597 1.368-3.597 3.109 0 1.55.952 2.494 2.857 2.917l3.039.68c.618.137.81.314.81.631 0 .24-.191.433-.748.433H1.487a.943.943 0 0 0-.788.268.946.946 0 0 0-.272.787v.983a.4.4 0 0 0 .104.321.387.387 0 0 0 .314.123h5.172c2.793 0 3.916-1.367 3.916-2.986 0-1.673-.964-2.618-2.856-3.039l-3.039-.681z"/></symbol><symbol id="icon-airbnb" viewBox="0 0 32 32"><path fill="#8989a2" style="fill:var(--color6,#8989a2)" d="M16.789 13.544a.65.65 0 0 1-.399.598.647.647 0 1 1 .4-.597zm-2.667 1.304v.159a1.247 1.247 0 0 0-.966-.399 1.972 1.972 0 0 0-1.369 3.35 1.97 1.97 0 0 0 1.369.59 1.2 1.2 0 0 0 .965-.408v.169a.144.144 0 0 0 .04.1.14.14 0 0 0 .1.04h.806v-3.742h-.806a.144.144 0 0 0-.14.14zm0 2.399a.984.984 0 0 1-.806.409 1.072 1.072 0 0 1-.794-.296 1.065 1.065 0 0 1-.247-1.203c.057-.134.141-.255.247-.355a1.093 1.093 0 0 1 .794-.296 1.01 1.01 0 0 1 .806.409v1.333zm1.543-2.538h.955v3.742h-.955v-3.742zm14.272-.1a1.237 1.237 0 0 0-.966.399v-2.101h-.955v5.544h.806a.144.144 0 0 0 .14-.14v-.169a1.234 1.234 0 0 0 .965.408 1.968 1.968 0 0 0 1.933-1.966 1.974 1.974 0 0 0-1.922-1.976v.001zm-.159 3.036a.976.976 0 0 1-.806-.408v-1.334a1.077 1.077 0 0 1 .806-.408 1.074 1.074 0 1 1 0 2.15zm-2.259-1.413v2.23h-.956v-2.12c0-.617-.199-.866-.736-.866a1.074 1.074 0 0 0-.777.369v2.608h-.955V14.71h.757a.144.144 0 0 1 .14.14v.159a1.372 1.372 0 0 1 1.015-.398c.381-.013.753.115 1.045.358.338.279.468.637.468 1.264h-.001zm-5.744-1.623a1.237 1.237 0 0 0-.966.398v-2.101h-.955v5.544h.806a.144.144 0 0 0 .14-.14v-.169a1.234 1.234 0 0 0 .965.408 1.968 1.968 0 0 0 1.933-1.966 1.97 1.97 0 0 0-1.923-1.976zm-.159 3.036a.976.976 0 0 1-.806-.408v-1.334a1.077 1.077 0 0 1 .806-.408 1.072 1.072 0 0 1 .793.296 1.065 1.065 0 0 1 .247 1.203 1.067 1.067 0 0 1-1.04.651zm-2.588-3.036c.148-.005.295.011.438.049v.886s-.796-.269-1.295.299v2.618h-.956v-3.752h.806a.144.144 0 0 1 .14.14v.159a1.31 1.31 0 0 1 .867-.398zm-9.922 3.504c-.049-.119-.099-.249-.149-.358-.08-.179-.159-.348-.229-.508l-.01-.01a106.3 106.3 0 0 0-2.198-4.499l-.03-.06a25.703 25.703 0 0 1-.239-.468 2.832 2.832 0 0 0-.358-.547 1.606 1.606 0 0 0-1.265-.617 1.675 1.675 0 0 0-1.274.597 3.386 3.386 0 0 0-.358.547c-.078.157-.157.313-.239.468l-.03.06a114.155 114.155 0 0 0-2.198 4.499l-.01.02c-.07.16-.149.329-.229.508-.05.11-.099.229-.149.358a2.235 2.235 0 0 0-.119 1.075 2.114 2.114 0 0 0 1.295 1.652 2.044 2.044 0 0 0 1.065.139c.351-.045.69-.16.995-.338.463-.277.88-.626 1.232-1.035.355.407.772.756 1.234 1.035a2.613 2.613 0 0 0 1.254.358 2.01 2.01 0 0 0 .806-.159 2.113 2.113 0 0 0 1.294-1.652 1.89 1.89 0 0 0-.09-1.065h-.001zm-4.489.518a4.91 4.91 0 0 1-1.005-1.851 1.592 1.592 0 0 1-.03-.607.97.97 0 0 1 .159-.418c.1-.138.232-.25.384-.327s.321-.115.492-.111a1.019 1.019 0 0 1 .876.438c.085.125.14.268.159.418.029.202.019.409-.03.607a5.08 5.08 0 0 1-1.006 1.851zm3.971.467a1.479 1.479 0 0 1-1.662 1.263 1.943 1.943 0 0 1-.757-.259 4.649 4.649 0 0 1-1.135-.966 5.608 5.608 0 0 0 1.204-2.198c.064-.277.081-.563.049-.846a1.616 1.616 0 0 0-.269-.677 1.674 1.674 0 0 0-1.404-.707 1.698 1.698 0 0 0-1.403.707c-.14.202-.232.434-.269.677-.042.282-.026.571.049.846.149.657.557 1.403 1.204 2.209a4.493 4.493 0 0 1-1.135.966c-.232.138-.49.226-.757.259a1.588 1.588 0 0 1-.757-.099 1.487 1.487 0 0 1-.901-1.166 1.64 1.64 0 0 1 .09-.776c.03-.1.08-.199.129-.318.07-.159.149-.329.229-.498l.01-.02a109.57 109.57 0 0 1 2.189-4.469l.03-.06c.08-.149.159-.309.239-.458.075-.157.169-.304.279-.438a1.052 1.052 0 0 1 .797-.369 1.044 1.044 0 0 1 .797.369c.11.134.203.281.279.438.08.149.159.309.239.458l.03.06a132.127 132.127 0 0 1 2.18 4.479v.01c.08.16.149.339.229.498.049.119.099.22.129.318.082.247.106.509.069.766v.001z"/></symbol><symbol id="icon-react" viewBox="0 0 32 32"><path fill="#8989a2" style="fill:var(--color6,#8989a2)" d="M26.321 10.897a21.567 21.567 0 0 0-1.021-.322c.057-.231.11-.463.158-.697.773-3.75.267-6.775-1.458-7.77-1.654-.954-4.36.041-7.093 2.419a19.91 19.91 0 0 0-.79.724 15.894 15.894 0 0 0-.525-.486c-2.864-2.543-5.736-3.615-7.46-2.617-1.653.957-2.143 3.8-1.447 7.354.069.352.147.702.234 1.05-.406.116-.8.239-1.174.369C2.387 12.092.242 13.926.242 15.83c0 1.966 2.3 3.938 5.8 5.133.284.096.569.186.857.268-.094.375-.177.753-.25 1.133-.663 3.494-.146 6.268 1.504 7.219 1.703.982 4.561-.027 7.344-2.46.22-.192.441-.396.662-.61.278.269.564.529.858.782 2.695 2.32 5.358 3.256 7.005 2.303 1.7-.985 2.254-3.965 1.536-7.591-.055-.277-.118-.56-.19-.85.2-.059.397-.121.59-.184 3.636-1.204 6-3.15 6-5.145 0-1.91-2.213-3.758-5.639-4.936l.002.002z"/><path fill="#fff" style="fill:var(--color4,#fff)" d="M25.532 19.691c-.174.058-.35.113-.532.166a31.714 31.714 0 0 0-1.606-4.018 31.89 31.89 0 0 0 1.544-3.96c.325.094.639.193.943.3 2.935 1.011 4.726 2.505 4.726 3.655 0 1.226-1.933 2.818-5.073 3.858v-.002zm-1.302 2.582c.306 1.374.357 2.793.15 4.186-.189 1.018-.569 1.697-1.038 1.969-1 .578-3.137-.174-5.442-2.157-.264-.227-.531-.47-.8-.727a31.953 31.953 0 0 0 2.659-3.376 31.642 31.642 0 0 0 4.296-.662c.065.261.122.517.172.767h.005zm-13.174 6.056c-.976.345-1.755.355-2.224.084-1-.577-1.417-2.805-.85-5.793.067-.353.144-.704.232-1.053 1.409.303 2.837.51 4.274.619a32.914 32.914 0 0 0 2.723 3.364c-.197.19-.399.376-.604.556a11.465 11.465 0 0 1-3.55 2.223h.001zm-4.575-8.644a11.478 11.478 0 0 1-3.7-1.965c-.786-.675-1.181-1.345-1.181-1.887 0-1.155 1.722-2.628 4.594-3.63a20.6 20.6 0 0 1 1.091-.344 32.45 32.45 0 0 0 1.546 4.006 32.975 32.975 0 0 0-1.565 4.063 15.554 15.554 0 0 1-.785-.245v.002zM8.014 9.244c-.596-3.047-.2-5.345.796-5.921 1.061-.615 3.408.261 5.88 2.457.158.141.317.287.476.439a32.459 32.459 0 0 0-2.7 3.344 33.211 33.211 0 0 0-4.232.658c-.081-.324-.154-.65-.218-.978h-.002zm13.682 3.379a41.361 41.361 0 0 0-.965-1.586c1.012.127 1.982.3 2.892.505a28.867 28.867 0 0 1-1.015 2.731 45.71 45.71 0 0 0-.913-1.65v-.001zm-5.579-5.435c.66.719 1.283 1.471 1.866 2.254a39.747 39.747 0 0 0-3.75 0 29.282 29.282 0 0 1 1.883-2.25l.001-.003zM10.5 12.632c-.311.54-.61 1.086-.896 1.64a30.158 30.158 0 0 1-1.005-2.742c.905-.203 1.87-.368 2.876-.493a38.72 38.72 0 0 0-.973 1.6l-.003-.004zm1 8.097a28.868 28.868 0 0 1-2.923-.47c.28-.904.625-1.844 1.028-2.8a39.548 39.548 0 0 0 1.896 3.27H11.5zm4.65 3.844a30.474 30.474 0 0 1-1.909-2.284c.607.024 1.226.036 1.855.036.647 0 1.285-.014 1.915-.043a28.71 28.71 0 0 1-1.857 2.291h-.005zm6.471-7.163c.403.911.759 1.842 1.065 2.79-.977.22-1.965.388-2.959.505.335-.531.66-1.069.974-1.614.319-.553.626-1.113.92-1.68zm-2.093 1.004c-.48.833-.988 1.652-1.521 2.455a44.362 44.362 0 0 1-5.776.01 38.465 38.465 0 0 1-2.903-5.015c.417-.869.867-1.721 1.35-2.557.481-.835.994-1.652 1.538-2.45a38.054 38.054 0 0 1 5.781.002c.538.795 1.047 1.608 1.528 2.44s.936 1.68 1.367 2.545a40.89 40.89 0 0 1-1.363 2.567l-.002.003zm2.795-15.131c1.062.612 1.475 3.083.808 6.322-.044.211-.091.421-.142.63a32.313 32.313 0 0 0-4.241-.67 31.807 31.807 0 0 0-2.681-3.346c.238-.229.481-.452.73-.669 2.341-2.038 4.53-2.842 5.527-2.268z"/><path fill="#8989a2" style="fill:var(--color6,#8989a2)" d="M16.102 13.001a2.836 2.836 0 0 1 2.617 1.748 2.84 2.84 0 0 1-.614 3.087A2.831 2.831 0 1 1 14.1 13.83a2.836 2.836 0 0 1 2.003-.83z"/></symbol><symbol id="icon-accenture" viewBox="0 0 32 32"><path fill="#8989a2" style="fill:var(--color6,#8989a2)" d="m18.585 14.119 1.828-.68-1.828-.719v-.953l3.129 1.263v.777l-3.129 1.264v-.953zm-17.28 6.027c-.661 0-1.206-.33-1.206-1.069v-.039c0-.894.777-1.206 1.73-1.206h.447v-.175c0-.37-.155-.583-.544-.583a.478.478 0 0 0-.375.113.487.487 0 0 0-.169.354H.214c.078-.818.719-1.206 1.574-1.206.874 0 1.516.37 1.516 1.283v2.45h-.991v-.428a1.19 1.19 0 0 1-1.01.507zm.972-1.303v-.349h-.408c-.506 0-.759.136-.759.466v.039c0 .253.155.428.506.428a.586.586 0 0 0 .461-.144c.062-.055.112-.123.147-.198s.053-.158.053-.241zm3.342 1.303c-1.011 0-1.75-.622-1.75-1.866v-.057c0-1.245.777-1.906 1.75-1.906.836 0 1.516.428 1.595 1.38h-.972c-.059-.349-.253-.583-.602-.583-.428 0-.738.349-.738 1.069v.117c0 .738.272 1.069.738 1.069a.68.68 0 0 0 .661-.661h.934c-.059.836-.623 1.439-1.614 1.439zm3.81 0c-1.011 0-1.75-.622-1.75-1.866v-.057c0-1.244.777-1.905 1.75-1.905.836 0 1.516.428 1.595 1.38h-.972c-.059-.349-.253-.583-.602-.583-.428 0-.738.349-.738 1.069v.117c0 .738.272 1.069.738 1.069a.68.68 0 0 0 .661-.661h.932c-.058.835-.622 1.438-1.613 1.438zm3.83 0c-1.049 0-1.769-.622-1.769-1.846v-.078c0-1.225.759-1.905 1.75-1.905.914 0 1.672.506 1.672 1.73v.447H12.54c.039.661.33.914.759.914.15.012.299-.028.422-.113s.215-.21.258-.353h.953c-.136.678-.7 1.203-1.672 1.203zm-.719-2.334h1.38c-.019-.544-.272-.777-.68-.777-.33.021-.622.195-.7.777zm2.993-1.398h1.03v.545a1.165 1.165 0 0 1 1.108-.623c.661 0 1.108.408 1.108 1.283v2.448h-1.03v-2.293c0-.428-.175-.622-.544-.622a.606.606 0 0 0-.478.191.598.598 0 0 0-.164.488v2.235h-1.03v-3.653zm5.132-1.108v1.108h.7v.759h-.7v1.73c0 .272.117.408.37.408a.85.85 0 0 0 .349-.059v.797a1.98 1.98 0 0 1-.583.078c-.797 0-1.166-.37-1.166-1.108v-1.846h-.427v-.759h.428v-.681l1.029-.427zm4.548 4.762h-1.031v-.543a1.135 1.135 0 0 1-1.067.623c-.661 0-1.147-.408-1.147-1.263v-2.47h1.029v2.333c0 .428.175.622.525.622a.619.619 0 0 0 .474-.196.63.63 0 0 0 .168-.484v-2.256h1.03v3.635h.02zm.759-3.654h1.031v.68a1.106 1.106 0 0 1 1.108-.719v1.011c-.7 0-1.108.213-1.108.817v1.885h-1.03v-3.674zm4.219 3.731c-1.049 0-1.769-.622-1.769-1.846v-.078c0-1.225.759-1.905 1.75-1.905.914 0 1.672.506 1.672 1.73v.447h-2.373c.039.661.33.914.759.914a.652.652 0 0 0 .68-.466h.953c-.155.678-.719 1.203-1.672 1.203h.001zm-.739-2.333h1.38c-.019-.544-.272-.777-.68-.777-.311.021-.604.195-.7.777z"/></symbol><symbol id="icon-shake" viewBox="0 0 32 32"><path fill="#8989a2" style="fill:var(--color6,#8989a2)" d="M5.091 30.108h16.214a5.477 5.477 0 0 0 4.967-2.734 5.2 5.2 0 0 0-.69-5.737l-9.393-11.271a1.468 1.468 0 0 1 .185-2.046L25.936.353l1.212 1.308-9.092 7.917 9.023 10.818a7.167 7.167 0 0 1 1.044 7.666 7.122 7.122 0 0 1-6.632 3.925l-16.398.016a.935.935 0 0 1-.943-.938v-.017a.955.955 0 0 1 .582-.869.928.928 0 0 1 .36-.071z"/><path fill="#8989a2" style="fill:var(--color6,#8989a2)" d="m4.888 30.124 16.481-3.036a2.336 2.336 0 0 0 1.733-1.543 2.328 2.328 0 0 0-.421-2.28c-3.889-4.679-7.761-9.326-11.65-14.021a1.859 1.859 0 0 1-.388-1.644 1.869 1.869 0 0 1 1.094-1.292L26.25.035l.522 1.845-13.839 6.004a.279.279 0 0 0-.184.213c-.014.049-.015.101-.004.151s.036.096.071.134c3.788 4.545 7.541 9.057 11.331 13.602a4.146 4.146 0 0 1 .825 4.21 4.055 4.055 0 0 1-3.115 2.768L8.826 31.36l-3.939-1.236z"/><path fill="#8989a2" style="fill:var(--color6,#8989a2)" d="M26.707 1.896 10.225 4.932a2.25 2.25 0 0 0-1.733 1.543 2.338 2.338 0 0 0 .422 2.28c3.889 4.679 7.761 9.326 11.65 14.005a1.906 1.906 0 0 1 .388 1.661 1.914 1.914 0 0 1-1.093 1.292L5.345 31.986l-.521-1.845 13.839-6.004a.35.35 0 0 0 .184-.213.345.345 0 0 0-.067-.285c-8.213-9.845-4.074-4.897-11.33-13.602a4.146 4.146 0 0 1-.824-4.21 4.036 4.036 0 0 1 3.115-2.768L26.072.023l.637 1.873z"/><path fill="#8989a2" style="fill:var(--color6,#8989a2)" d="M26.488 1.913H10.275A5.512 5.512 0 0 0 5.309 4.63a5.263 5.263 0 0 0 .708 5.753l9.394 11.271a1.455 1.455 0 0 1-.203 2.046l-9.544 7.967-1.213-1.308 9.074-7.917-9.007-10.818a7.166 7.166 0 0 1-1.043-7.665A7.111 7.111 0 0 1 10.089.034L26.487.017a.95.95 0 0 1 .96.939v.017a.955.955 0 0 1-.96.94z"/><path fill="#8989a2" style="fill:var(--color6,#8989a2)" d="m14.365 24.405-8.703 7.263-1.213-1.309 7.963-6.944 1.953.99z"/><path fill="#8989a2" style="fill:var(--color6,#8989a2)" d="M17.144 26.887 5.342 31.986l-.521-1.845 11.296-4.897 1.027 1.644z"/><path fill="#8989a2" style="fill:var(--color6,#8989a2)" d="m4.888 30.124 13.199-2.432.505 1.861-9.765 1.813-3.939-1.243z"/><path fill="#8989a2" style="fill:var(--color6,#8989a2)" d="M5.091 30.107h13.653c.155.614.235 1.245.236 1.878l-13.889.017a.935.935 0 0 1-.943-.938v-.017a.955.955 0 0 1 .582-.869.928.928 0 0 1 .36-.071z"/></symbol><symbol id="icon-mine" viewBox="0 0 32 32"><path fill="#8989a2" style="fill:var(--color6,#8989a2)" d="M24.6 17.943a1.386 1.386 0 0 0 .238 1.373 1.55 1.55 0 0 0 1.28.282 6.087 6.087 0 0 1 2.676.018 1.684 1.684 0 0 1 .738 2.47 6.816 6.816 0 0 1-1.291 1.551 35.863 35.863 0 0 0-4.207 6.047c-.526.853-1.222 1.99-2.33 2.103a2 2 0 0 1-2.24-1.546c-.15-1.044.86-2.041 1.549-2.726.484-.484.937-.983 1.387-1.504a28.03 28.03 0 0 0 1.493-1.84c.549-.747 1.462-1.969.788-2.892-.489-.678-1.527-.56-2.206-.289a5.482 5.482 0 0 0-2.154 1.82 27.249 27.249 0 0 0-1.628 2.737 5.848 5.848 0 0 1-1.614 2.003 1.646 1.646 0 0 1-2.206-.381 2.453 2.453 0 0 1 .262-2.546 9.727 9.727 0 0 1 1.475-1.714c.833-.853 1.678-1.701 2.487-2.579.405-.45.807-.894 1.173-1.357.332-.427.831-.986.684-1.578-.278-1.115-2.041-.71-2.761-.357a9.55 9.55 0 0 0-2.651 2.251 24.802 24.802 0 0 0-2.195 2.953c-1.393 2.077-2.679 4.239-4.117 6.284-.599.853-1.314 1.885-2.411 2.103a1.915 1.915 0 0 1-2.295-1.698 3.88 3.88 0 0 1 .999-2.629 68.977 68.977 0 0 1 1.525-1.911 263.533 263.533 0 0 1 4.207-4.995 101.622 101.622 0 0 0 3.5-4.315c.64-.847 1.294-1.68 1.883-2.56a8.853 8.853 0 0 1 1.92-2.298 2.051 2.051 0 0 1 2.385-.205c.889.689.45 1.967.081 2.803s-.723 1.888.337 2.29c.747.289 1.578.058 2.308.427a2.037 2.037 0 0 1 .933 2.408zM9.811 18.011a78.553 78.553 0 0 1 5.625-7.228c1.701-1.938 3.497-3.794 5.259-5.684a3.888 3.888 0 0 0 1.206-2.524 1.681 1.681 0 0 0-1.734-1.8 3.487 3.487 0 0 0-2.401 1.656c-.681.871-1.264 1.812-1.875 2.727-.583.865-1.241 1.673-1.861 2.511-.684.933-1.346 1.888-2.103 2.755-.589.666-1.344 1.859-2.366 1.84a.91.91 0 0 1-.82-.61 1.355 1.355 0 0 1 .262-1.314 15.077 15.077 0 0 1 1.591-1.886 6.742 6.742 0 0 0 1.52-1.781 1.996 1.996 0 0 0-.307-2.067 1.223 1.223 0 0 0-1.239-.41c-.526.153-.889.681-1.314.973-.284.192-.876.366-1.052-.058s.35-.838.581-1.075c.64-.66 1.774-1.342 1.839-2.353A1.445 1.445 0 0 0 10 .463a1.427 1.427 0 0 0-1.362-.14 4.731 4.731 0 0 0-2.222 1.935c-.497.705-1.362 1.94-1.034 2.85a1.15 1.15 0 0 0 .976.711c.452.071 1.078-.176 1.475.09.901.605-.203 2.053-.61 2.629a19.771 19.771 0 0 1-2.106 2.472c-.804.81-1.698 1.578-2.421 2.453A2.12 2.12 0 0 0 2.301 16a1.572 1.572 0 0 0 1.255.635 1.575 1.575 0 0 0 1.263-.617 24.262 24.262 0 0 1 1.93-2.529 1.342 1.342 0 0 1 1.271-.381.905.905 0 0 1 .59.834.914.914 0 0 1-.064.354 6.787 6.787 0 0 1-1.909 2.56c-.747.788-1.578 1.467-2.306 2.249a3.563 3.563 0 0 0-1.1 2.627 1.563 1.563 0 0 0 .768 1.215 2.288 2.288 0 0 0 2.543-.651 19.632 19.632 0 0 0 2.59-3.349l.681-.934z"/><path fill="#8989a2" style="fill:var(--color6,#8989a2)" d="M28.522 4.462c-.526.547-1.109 1.052-1.644 1.578s-1.314 1.335-1.067 2.156a1.126 1.126 0 0 0 .823.671 1.139 1.139 0 0 0 1.018-.306c.607-.526 1.12-1.359 2.043-1.118a1.639 1.639 0 0 1 .946 2.035 4.348 4.348 0 0 1-1.414 1.98 12.446 12.446 0 0 0-1.678 2.14c-.379.612-.773 1.249-1.578 1.314a1.582 1.582 0 0 1-1.546-1.28 2.819 2.819 0 0 1 .878-2.366c.427-.526.949-1.328.31-1.92-.694-.64-1.649-.203-2.366.107a1.514 1.514 0 0 1-2.08-.55 2.129 2.129 0 0 1 .338-2.182c.702-1.01 1.638-1.84 2.366-2.845.928-1.241 1.554-3.247 3.428-3.1a2.187 2.187 0 0 1 1.768 1.315 2.285 2.285 0 0 1-.544 2.366z"/></symbol><symbol id="icon-clearbit" viewBox="0 0 32 32"><path fill="#8989a2" style="fill:var(--color6,#8989a2)" d="M25.992 31.51H5.537a5.278 5.278 0 0 1-5.264-5.264V5.792A5.283 5.283 0 0 1 5.537.529h20.455a5.278 5.278 0 0 1 5.263 5.263v20.454a5.259 5.259 0 0 1-5.263 5.263z"/><path fill="#a0a0bd" style="fill:var(--color7,#a0a0bd)" d="M25.991.511H15.764v15.49h15.49V5.774A5.267 5.267 0 0 0 25.99.51z"/><path fill="#bcbcd8" style="fill:var(--color8,#bcbcd8)" d="M15.764 31.51h10.227a5.28 5.28 0 0 0 5.264-5.264V16.019h-15.49l-.001 15.491z"/></symbol><symbol id="icon-bigsping" viewBox="0 0 32 32"><path fill="#00dcc0" style="fill:var(--color9,#00dcc0)" d="M23.888 14.279c.9.616 1.818 1.197 2.671 1.894a8.41 8.41 0 0 1 1.269 11.007 8.404 8.404 0 0 1-2.986 2.652 14.9 14.9 0 0 1-6.692 1.476c-4.706.028-9.413 0-14.124.021-.584 0-.789-.129-.786-.755.023-5.455 0-10.911.017-16.366a3.875 3.875 0 0 1 3.797-3.935c.764-.104 1.545-.061 2.299-.221 3.818.5 7.568 1.419 11.184 2.741.809.299 1.616.6 2.421.904.37.074.701.281.929.582z"/><path fill="#125eec" style="fill:var(--color10,#125eec)" d="M23.888 14.279a73.377 73.377 0 0 0-8.658-2.854c-1.902-.416-3.79-.903-5.725-1.15-.257-.186-.672.076-.86-.303-.804-.221-1.611-.441-2.412-.674a3.837 3.837 0 0 1-2.94-3.817c-.068-1.469-.023-2.942-.036-4.414 0-.297.032-.492.41-.484C9.32.693 14.979.345 20.626.792a9.85 9.85 0 0 1 2.931.713c3.498 1.422 4.429 4.497 4.045 7.69a6.418 6.418 0 0 1-3.714 5.085z"/></symbol><symbol id="icon-tonkean" viewBox="0 0 32 32"><path fill="#8989a2" style="fill:var(--color6,#8989a2)" d="M26.937 13.092c-.149.127-.209.175-.264.226-.187.174-.374.348-.56.524a3.152 3.152 0 0 1-.433-.663c-.207-.597-.328-1.225-.54-1.82a8.763 8.763 0 0 0-1.819-3.305c-.82 1.963-.82 1.963-1.248 2.172a35.123 35.123 0 0 0-.641-3.616c-.334-1.197-.886-2.334-1.387-3.61l-.978 1.728c-.424-1.009-.715-1.867-1.136-2.654a4.47 4.47 0 0 0-1.82-2.073c-.164 4.228-2.262 7.248-5.772 8.33l-.442-1.584a7.791 7.791 0 0 0-2.353 3.622c-.432 1.351-.738 2.742-1.112 4.139l-.492-.229a13.544 13.544 0 0 0-1.133 4.479c-.543 6.262 4.621 12.351 10.605 12.425a10.69 10.69 0 0 0 7.349-2.454c4.927-4.212 5.242-9.697 4.177-15.636zm-6.008 13.075a1.754 1.754 0 0 0-1.139 1.027 4.226 4.226 0 0 1-4.425 2.336 3.978 3.978 0 0 1-3.322-3.781 1.164 1.164 0 0 0-.431-.765 3.988 3.988 0 0 1-1.844-4.343 3.928 3.928 0 0 1 3.069-3.204 3.77 3.77 0 0 1 4.322 1.617c.063.087.135.169.202.254l.082-.232a13.689 13.689 0 0 1 3.118-.192 3.448 3.448 0 0 1 2.839 3.308 3.83 3.83 0 0 1-2.47 3.976h.001z"/></symbol><symbol id="icon-engineer" viewBox="0 0 32 32"><path d="M16.516 3.2V0h-2.06v3.2a5.164 5.164 0 0 0-4.103 5.576 5.162 5.162 0 0 0 8.596 3.31A5.16 5.16 0 0 0 16.52 3.2h-.004z"/><path d="M26.4 22.709h2.508v-2.064h-3.547l-4.063-8.116a7.247 7.247 0 0 1-3.372 2.52l2.8 5.6h-4.211V18.58h-2.064v2.064h-4.209l2.8-5.6a7.247 7.247 0 0 1-3.372-2.52l-4.071 8.121H2.063v2.064h2.508l-4.572 9.132a5.308 5.308 0 0 0 6.032-2.775L9.21 22.71h5.241v2.064h2.064v-2.065h5.241l3.176 6.357a5.3 5.3 0 0 0 6.032 2.775l-4.565-9.132z"/></symbol><symbol id="icon-product-circuit" viewBox="0 0 32 32"><path d="M10.88 9.725V7.459a3.84 3.84 0 1 0-2.56 0v2.796c0 .339.135.665.375.905l3.465 3.465v14.83a1.28 1.28 0 0 0 2.56 0v-15.36a1.28 1.28 0 0 0-.375-.905L10.88 9.725z"/><path d="M5.76 21.245v-2.266a3.84 3.84 0 1 0-2.56 0v2.796c0 .339.135.665.375.905l3.465 3.465v3.31a1.28 1.28 0 0 0 2.56 0v-3.84a1.28 1.28 0 0 0-.375-.905L5.76 21.245zM23.68 10.255V7.459a3.84 3.84 0 1 0-2.56 0v2.266l-3.465 3.465a1.28 1.28 0 0 0-.375.905v15.36a1.28 1.28 0 0 0 2.56 0v-14.83l3.465-3.465c.24-.24.375-.566.375-.905z"/><path d="M31.36 15.375a3.838 3.838 0 0 0-6.05-3.156 3.844 3.844 0 0 0-1.594 3.663 3.838 3.838 0 0 0 2.525 3.097v2.266l-3.465 3.465a1.28 1.28 0 0 0-.375.905v3.84a1.28 1.28 0 0 0 2.56 0v-3.31l3.465-3.465c.24-.24.375-.566.375-.905v-2.796c.746-.264 1.392-.752 1.851-1.397s.706-1.416.709-2.208z"/></symbol><symbol id="icon-data-why" viewBox="0 0 32 32"><path d="M16.966 0h-1.933v14.494h-2.901v1.943h2.901v14.494h1.933v-5.792h2.901v-1.933h-2.901V7.735h2.901V5.802h-2.901V.001zM29.176 2.295h-5.647c-1.04 0-1.882.843-1.882 1.882v5.647c0 1.04.843 1.882 1.882 1.882h5.647c1.04 0 1.882-.843 1.882-1.882V4.177c0-1.04-.843-1.882-1.882-1.882zM29.176 19.236h-5.647c-1.04 0-1.882.843-1.882 1.882v5.647c0 1.04.843 1.882 1.882 1.882h5.647c1.04 0 1.882-.843 1.882-1.882v-5.647c0-1.04-.843-1.882-1.882-1.882zM8.471 9.824H2.824c-1.04 0-1.882.843-1.882 1.882v7.529c0 1.04.843 1.882 1.882 1.882h5.647c1.04 0 1.882-.843 1.882-1.882v-7.529c0-1.04-.843-1.882-1.882-1.882z"/></symbol><symbol id="icon-algorithms-why" viewBox="0 0 32 32"><path d="M7.973 15.89V3.504h16.092V15.89l5.168-2.871-3.378-1.982V2.605a.887.887 0 0 0-.889-.889H7.078a.887.887 0 0 0-.889.889v8.428l-3.413 1.972 5.196 2.885z"/><path d="M16.453 22.164a.892.892 0 0 1-.868 0l-13.87-7.705v14.969a.889.889 0 0 0 .889.888h26.825a.889.889 0 0 0 .888-.888V14.459l-13.865 7.705z"/><path d="m13.337 14.601-3.314-3.314a.897.897 0 0 1-.195-.974.92.92 0 0 1 .195-.29l3.314-3.314 1.264 1.264-2.681 2.683 2.683 2.683-1.266 1.262zM18.706 14.601l-1.264-1.264 2.683-2.683-2.688-2.676 1.264-1.264 3.314 3.308a.897.897 0 0 1 .195.974.904.904 0 0 1-.195.29L18.707 14.6z"/></symbol><symbol id="icon-insights-why" viewBox="0 0 32 32"><path d="M18.735 16.911h-5.47a.895.895 0 0 0-.645.267.91.91 0 0 0-.267.645v11.85a.895.895 0 0 0 .563.842.928.928 0 0 0 .349.069h5.47a.91.91 0 0 0 .911-.911v-11.85a.91.91 0 0 0-.911-.911zM7.796 22.381h-5.47a.91.91 0 0 0-.911.911v6.381a.91.91 0 0 0 .911.911h5.47a.91.91 0 0 0 .911-.911v-6.381a.91.91 0 0 0-.911-.911zM29.674 11.443h-5.47a.928.928 0 0 0-.645.266.9.9 0 0 0-.267.645v17.32a.909.909 0 0 0 .912.911h5.47a.91.91 0 0 0 .911-.911v-17.32a.91.91 0 0 0-.911-.911zM16 12.362a.924.924 0 0 0 .645-.267l7.561-7.567v4.18h1.824V2.327a.906.906 0 0 0-.268-.645.896.896 0 0 0-.647-.265h-6.38v1.824h4.18L16 10.156l-3.912-3.914a.911.911 0 0 0-1.288 0l-4.559 4.557 1.288 1.288 3.914-3.912 3.914 3.914c.084.086.184.154.294.202s.229.072.349.073z"/></symbol><symbol id="icon-eye-why" viewBox="0 0 32 32"><path d="M31.09 15.226c-1.402-2.808-3.554-5.173-6.217-6.833s-5.734-2.552-8.872-2.576a17.02 17.02 0 0 0-15.09 9.409 1.719 1.719 0 0 0 0 1.548c1.402 2.808 3.554 5.173 6.217 6.833s5.734 2.552 8.872 2.576a17.02 17.02 0 0 0 15.09-9.409 1.719 1.719 0 0 0 0-1.548zM16 23.641A7.638 7.638 0 1 1 16 8.37a7.638 7.638 0 0 1 0 15.269v.004zm0-12.729a5.048 5.048 0 0 0-1.343.201 2.539 2.539 0 0 1-1.852 4.037 2.536 2.536 0 0 1-1.696-.489 5.073 5.073 0 0 0 5.061 6.408 5.077 5.077 0 0 0 4.649-6.714 5.077 5.077 0 0 0-4.82-3.443v-.001z"/></symbol><symbol id="icon-stars-hero" viewBox="0 0 32 32"><path d="M26 12a1.503 1.503 0 0 1-1.5-1.5 3.004 3.004 0 0 0-3-3A1.503 1.503 0 0 1 20 6a1.503 1.503 0 0 1 1.5-1.5 3.004 3.004 0 0 0 3-3A1.503 1.503 0 0 1 26 0a1.503 1.503 0 0 1 1.5 1.5 3.004 3.004 0 0 0 3 3A1.503 1.503 0 0 1 32 6a1.503 1.503 0 0 1-1.5 1.5 3.004 3.004 0 0 0-3 3A1.503 1.503 0 0 1 26 12zM12 32a2 2 0 0 1-2-2 8 8 0 0 0-8-8 2 2 0 0 1 0-4 8 8 0 0 0 8-8 2 2 0 0 1 4 0 8 8 0 0 0 8 8 2 2 0 0 1 0 4 8 8 0 0 0-8 8 2 2 0 0 1-2 2z"/></symbol></defs></svg>